<svg xmlns="http://www.w3.org/2000/svg" xmlns:xlink="http://www.w3.org/1999/xlink" contentStyleType="text/css" data-diagram-type="SEQUENCE" height="883px" preserveAspectRatio="none" style="width:982px;height:883px;background:#FFFFFF;" version="1.1" viewBox="0 0 982 883" width="982px" zoomAndPan="magnify"><defs/><g><rect fill="#FFFFFF" height="148.4688" style="stroke:#000000;stroke-width:1;" width="643.6782" x="181.4741" y="447.7578"/><rect fill="#FFFFFF" height="43.9375" style="stroke:none;stroke-width:1;" width="643.6782" x="181.4741" y="552.2891"/><g><title>Ng..iDung</title><rect fill="#000000" fill-opacity="0.00000" height="719.7266" width="8" x="48.0503" y="82.2969"/><line style="stroke:#000000;stroke-width:1;stroke-dasharray:5,5;" x1="52" x2="52" y1="82.2969" y2="802.0234"/></g><g><title>.ng d.ng .Web.Mobile.</title><rect fill="#000000" fill-opacity="0.00000" height="719.7266" width="8" x="288.0229" y="82.2969"/><line style="stroke:#000000;stroke-width:1;stroke-dasharray:5,5;" x1="291.4741" x2="291.4741" y1="82.2969" y2="802.0234"/></g><g><title>API Server</title><rect fill="#000000" fill-opacity="0.00000" height="719.7266" width="8" x="491.0459" y="82.2969"/><line style="stroke:#000000;stroke-width:1;stroke-dasharray:5,5;" x1="494.7915" x2="494.7915" y1="82.2969" y2="802.0234"/></g><g><title>Oracle DB</title><rect fill="#000000" fill-opacity="0.00000" height="719.7266" width="8" x="772.9575" y="82.2969"/><line style="stroke:#000000;stroke-width:1;stroke-dasharray:5,5;" x1="776.7627" x2="776.7627" y1="82.2969" y2="802.0234"/></g><g><title>Qu.n l. Session</title><rect fill="#000000" fill-opacity="0.00000" height="719.7266" width="8" x="894.0703" y="82.2969"/><line style="stroke:#000000;stroke-width:1;stroke-dasharray:5,5;" x1="897.1523" x2="897.1523" y1="82.2969" y2="802.0234"/></g><g class="participant participant-head" data-participant="Ng..iDung"><text fill="#000000" font-family="Verdana" font-size="14" lengthAdjust="spacing" textLength="78.1006" x="10" y="78.9951">Ng&#432;&#7901;iDung</text><ellipse cx="52.0503" cy="14" fill="#FFFFFF" rx="8" ry="8" style="stroke:#000000;stroke-width:1;"/><path d="M52.0503,22 L52.0503,49 M39.0503,30 L65.0503,30 M52.0503,49 L39.0503,64 M52.0503,49 L65.0503,64" fill="none" style="stroke:#000000;stroke-width:1;"/></g><g class="participant participant-tail" data-participant="Ng..iDung"><text fill="#000000" font-family="Verdana" font-size="14" lengthAdjust="spacing" textLength="78.1006" x="10" y="814.0186">Ng&#432;&#7901;iDung</text><ellipse cx="52.0503" cy="826.3203" fill="#FFFFFF" rx="8" ry="8" style="stroke:#000000;stroke-width:1;"/><path d="M52.0503,834.3203 L52.0503,861.3203 M39.0503,842.3203 L65.0503,842.3203 M52.0503,861.3203 L39.0503,876.3203 M52.0503,861.3203 L65.0503,876.3203" fill="none" style="stroke:#000000;stroke-width:1;"/></g><g class="participant participant-head" data-participant="App"><rect fill="#FFFFFF" height="30.2969" rx="2.5" ry="2.5" style="stroke:#000000;stroke-width:1;" width="181.0977" x="201.4741" y="51"/><text fill="#000000" font-family="Verdana" font-size="14" lengthAdjust="spacing" textLength="167.0977" x="208.4741" y="70.9951">&#7912;ng d&#7909;ng (Web/Mobile)</text></g><g class="participant participant-tail" data-participant="App"><rect fill="#FFFFFF" height="30.2969" rx="2.5" ry="2.5" style="stroke:#000000;stroke-width:1;" width="181.0977" x="201.4741" y="801.0234"/><text fill="#000000" font-family="Verdana" font-size="14" lengthAdjust="spacing" textLength="167.0977" x="208.4741" y="821.0186">&#7912;ng d&#7909;ng (Web/Mobile)</text></g><g class="participant participant-head" data-participant="API"><rect fill="#FFFFFF" height="30.2969" rx="2.5" ry="2.5" style="stroke:#000000;stroke-width:1;" width="86.5088" x="451.7915" y="51"/><text fill="#000000" font-family="Verdana" font-size="14" lengthAdjust="spacing" textLength="72.5088" x="458.7915" y="70.9951">API Server</text></g><g class="participant participant-tail" data-participant="API"><rect fill="#FFFFFF" height="30.2969" rx="2.5" ry="2.5" style="stroke:#000000;stroke-width:1;" width="86.5088" x="451.7915" y="801.0234"/><text fill="#000000" font-family="Verdana" font-size="14" lengthAdjust="spacing" textLength="72.5088" x="458.7915" y="821.0186">API Server</text></g><g class="participant participant-head" data-participant="DB"><text fill="#000000" font-family="Verdana" font-size="14" lengthAdjust="spacing" textLength="70.3896" x="738.7627" y="78.9951">Oracle DB</text><path d="M758.9575,30 C758.9575,20 776.9575,20 776.9575,20 C776.9575,20 794.9575,20 794.9575,30 L794.9575,56 C794.9575,66 776.9575,66 776.9575,66 C776.9575,66 758.9575,66 758.9575,56 L758.9575,30" fill="#FFFFFF" style="stroke:#000000;stroke-width:1;"/><path d="M758.9575,30 C758.9575,40 776.9575,40 776.9575,40 C776.9575,40 794.9575,40 794.9575,30" fill="none" style="stroke:#000000;stroke-width:1;"/></g><g class="participant participant-tail" data-participant="DB"><text fill="#000000" font-family="Verdana" font-size="14" lengthAdjust="spacing" textLength="70.3896" x="738.7627" y="814.0186">Oracle DB</text><path d="M758.9575,827.3203 C758.9575,817.3203 776.9575,817.3203 776.9575,817.3203 C776.9575,817.3203 794.9575,817.3203 794.9575,827.3203 L794.9575,853.3203 C794.9575,863.3203 776.9575,863.3203 776.9575,863.3203 C776.9575,863.3203 758.9575,863.3203 758.9575,853.3203 L758.9575,827.3203" fill="#FFFFFF" style="stroke:#000000;stroke-width:1;"/><path d="M758.9575,827.3203 C758.9575,837.3203 776.9575,837.3203 776.9575,837.3203 C776.9575,837.3203 794.9575,837.3203 794.9575,827.3203" fill="none" style="stroke:#000000;stroke-width:1;"/></g><g class="participant participant-head" data-participant="Session"><rect fill="#FFFFFF" height="30.2969" rx="2.5" ry="2.5" style="stroke:#000000;stroke-width:1;" width="125.8359" x="835.1523" y="51"/><text fill="#000000" font-family="Verdana" font-size="14" lengthAdjust="spacing" textLength="111.8359" x="842.1523" y="70.9951">Qu&#7843;n l&#253; Session</text></g><g class="participant participant-tail" data-participant="Session"><rect fill="#FFFFFF" height="30.2969" rx="2.5" ry="2.5" style="stroke:#000000;stroke-width:1;" width="125.8359" x="835.1523" y="801.0234"/><text fill="#000000" font-family="Verdana" font-size="14" lengthAdjust="spacing" textLength="111.8359" x="842.1523" y="821.0186">Qu&#7843;n l&#253; Session</text></g><rect fill="#FFFFFF" height="3" style="stroke:#FFFFFF;stroke-width:1;" width="970.9883" x="5" y="112.8633"/><line style="stroke:#000000;stroke-width:0.5;" x1="5" x2="975.9883" y1="112.8633" y2="112.8633"/><line style="stroke:#000000;stroke-width:0.5;" x1="5" x2="975.9883" y1="115.8633" y2="115.8633"/><rect fill="#FFFFFF" height="23.1328" style="stroke:#000000;stroke-width:1;" width="97.8652" x="441.5615" y="102.2969"/><text fill="#000000" font-family="Verdana" font-size="13" font-weight="bold" lengthAdjust="spacing" textLength="79.3394" x="447.5615" y="118.3638">&#272;&#259;ng nh&#7853;p</text><g class="message" data-participant-1="Ng..iDung" data-participant-2="App"><polygon fill="#000000" points="280.0229,152.5625,290.0229,156.5625,280.0229,160.5625,284.0229,156.5625" style="stroke:#000000;stroke-width:1;"/><line style="stroke:#000000;stroke-width:1;" x1="52.0503" x2="286.0229" y1="156.5625" y2="156.5625"/><text fill="#000000" font-family="Verdana" font-size="13" lengthAdjust="spacing" textLength="169.8633" x="59.0503" y="151.4966">Nh&#7853;p username/password</text></g><g class="message" data-participant-1="App" data-participant-2="API"><polygon fill="#000000" points="483.0459,181.6953,493.0459,185.6953,483.0459,189.6953,487.0459,185.6953" style="stroke:#000000;stroke-width:1;"/><line style="stroke:#000000;stroke-width:1;" x1="292.0229" x2="489.0459" y1="185.6953" y2="185.6953"/><text fill="#000000" font-family="Verdana" font-size="13" lengthAdjust="spacing" textLength="66.8789" x="299.0229" y="180.6294">G&#7885;i LOGIN</text></g><g class="message" data-participant-1="API" data-participant-2="Session"><polygon fill="#000000" points="886.0703,210.8281,896.0703,214.8281,886.0703,218.8281,890.0703,214.8281" style="stroke:#000000;stroke-width:1;"/><line style="stroke:#000000;stroke-width:1;" x1="495.0459" x2="892.0703" y1="214.8281" y2="214.8281"/><text fill="#000000" font-family="Verdana" font-size="13" lengthAdjust="spacing" textLength="255.7725" x="502.0459" y="209.7622">X&#243;a session c&#361; + ForceLogout client c&#361;</text></g><g class="message" data-participant-1="API" data-participant-2="DB"><polygon fill="#000000" points="764.9575,239.9609,774.9575,243.9609,764.9575,247.9609,768.9575,243.9609" style="stroke:#000000;stroke-width:1;"/><line style="stroke:#000000;stroke-width:1;" x1="495.0459" x2="770.9575" y1="243.9609" y2="243.9609"/><text fill="#000000" font-family="Verdana" font-size="13" lengthAdjust="spacing" textLength="257.9116" x="502.0459" y="238.895">M&#7903; k&#7871;t n&#7889;i Oracle, ghi th&#244;ng tin session</text></g><g class="message" data-participant-1="API" data-participant-2="Session"><polygon fill="#000000" points="886.0703,269.0938,896.0703,273.0938,886.0703,277.0938,890.0703,273.0938" style="stroke:#000000;stroke-width:1;"/><line style="stroke:#000000;stroke-width:1;" x1="495.0459" x2="892.0703" y1="273.0938" y2="273.0938"/><text fill="#000000" font-family="Verdana" font-size="13" lengthAdjust="spacing" textLength="172.7705" x="502.0459" y="268.0278">L&#432;u session v&#224;o dictionary</text></g><g class="message" data-participant-1="API" data-participant-2="Ng..iDung"><polygon fill="#000000" points="63.0503,298.2266,53.0503,302.2266,63.0503,306.2266,59.0503,302.2266" style="stroke:#000000;stroke-width:1;"/><line style="stroke:#000000;stroke-width:1;" x1="57.0503" x2="494.0459" y1="302.2266" y2="302.2266"/><text fill="#000000" font-family="Verdana" font-size="13" lengthAdjust="spacing" textLength="90.9619" x="69.0503" y="297.1606">Tr&#7843; JWT token</text></g><rect fill="#FFFFFF" height="3" style="stroke:#FFFFFF;stroke-width:1;" width="970.9883" x="5" y="330.793"/><line style="stroke:#000000;stroke-width:0.5;" x1="5" x2="975.9883" y1="330.793" y2="330.793"/><line style="stroke:#000000;stroke-width:0.5;" x1="5" x2="975.9883" y1="333.793" y2="333.793"/><rect fill="#FFFFFF" height="23.1328" style="stroke:#000000;stroke-width:1;" width="71.5352" x="454.7266" y="320.2266"/><text fill="#000000" font-family="Verdana" font-size="13" font-weight="bold" lengthAdjust="spacing" textLength="53.0093" x="460.7266" y="336.2935">G&#7885;i API</text><g class="message" data-participant-1="Ng..iDung" data-participant-2="App"><polygon fill="#000000" points="280.0229,370.4922,290.0229,374.4922,280.0229,378.4922,284.0229,374.4922" style="stroke:#000000;stroke-width:1;"/><line style="stroke:#000000;stroke-width:1;" x1="52.0503" x2="286.0229" y1="374.4922" y2="374.4922"/><text fill="#000000" font-family="Verdana" font-size="13" lengthAdjust="spacing" textLength="215.9727" x="59.0503" y="369.4263">G&#7917;i request API + JWT + headers</text></g><g class="message" data-participant-1="App" data-participant-2="API"><polygon fill="#000000" points="483.0459,399.625,493.0459,403.625,483.0459,407.625,487.0459,403.625" style="stroke:#000000;stroke-width:1;"/><line style="stroke:#000000;stroke-width:1;" x1="292.0229" x2="489.0459" y1="403.625" y2="403.625"/><text fill="#000000" font-family="Verdana" font-size="13" lengthAdjust="spacing" textLength="132.4121" x="299.0229" y="398.5591">Chuy&#7875;n ti&#7871;p request</text></g><g class="message" data-participant-1="API" data-participant-2="Session"><polygon fill="#000000" points="886.0703,428.7578,896.0703,432.7578,886.0703,436.7578,890.0703,432.7578" style="stroke:#000000;stroke-width:1;"/><line style="stroke:#000000;stroke-width:1;" x1="495.0459" x2="892.0703" y1="432.7578" y2="432.7578"/><text fill="#000000" font-family="Verdana" font-size="13" lengthAdjust="spacing" textLength="142.8921" x="502.0459" y="427.6919">L&#7845;y OracleConnection</text></g><path d="M181.4741,447.7578 L245.917,447.7578 L245.917,454.8906 L235.917,464.8906 L181.4741,464.8906 L181.4741,447.7578" fill="#FFFFFF" style="stroke:#000000;stroke-width:1;"/><rect fill="none" height="148.4688" style="stroke:#000000;stroke-width:1;" width="643.6782" x="181.4741" y="447.7578"/><text fill="#000000" font-family="Verdana" font-size="13" font-weight="bold" lengthAdjust="spacing" textLength="19.4429" x="196.4741" y="460.8247">alt</text><text fill="#000000" font-family="Verdana" font-size="11" font-weight="bold" lengthAdjust="spacing" textLength="102.4482" x="260.917" y="459.9683">[Session t&#7891;n t&#7841;i]</text><g class="message" data-participant-1="API" data-participant-2="DB"><polygon fill="#000000" points="764.9575,482.0234,774.9575,486.0234,764.9575,490.0234,768.9575,486.0234" style="stroke:#000000;stroke-width:1;"/><line style="stroke:#000000;stroke-width:1;" x1="495.0459" x2="770.9575" y1="486.0234" y2="486.0234"/><text fill="#000000" font-family="Verdana" font-size="13" lengthAdjust="spacing" textLength="123.3096" x="502.0459" y="480.9575">Th&#7921;c thi procedure</text></g><g class="message" data-participant-1="DB" data-participant-2="API"><polygon fill="#000000" points="506.0459,511.1563,496.0459,515.1563,506.0459,519.1563,502.0459,515.1563" style="stroke:#000000;stroke-width:1;"/><line style="stroke:#000000;stroke-width:1;stroke-dasharray:2,2;" x1="500.0459" x2="775.9575" y1="515.1563" y2="515.1563"/><text fill="#000000" font-family="Verdana" font-size="13" lengthAdjust="spacing" textLength="50.21" x="512.0459" y="510.0903">K&#7871;t qu&#7843;</text></g><g class="message" data-participant-1="API" data-participant-2="App"><polygon fill="#000000" points="303.0229,540.2891,293.0229,544.2891,303.0229,548.2891,299.0229,544.2891" style="stroke:#000000;stroke-width:1;"/><line style="stroke:#000000;stroke-width:1;stroke-dasharray:2,2;" x1="297.0229" x2="494.0459" y1="544.2891" y2="544.2891"/><text fill="#000000" font-family="Verdana" font-size="13" lengthAdjust="spacing" textLength="69.4688" x="309.0229" y="539.2231">Tr&#7843; d&#7919; li&#7879;u</text></g><line style="stroke:#000000;stroke-width:1;stroke-dasharray:2,2;" x1="181.4741" x2="825.1523" y1="553.2891" y2="553.2891"/><text fill="#000000" font-family="Verdana" font-size="11" font-weight="bold" lengthAdjust="spacing" textLength="108.9849" x="186.4741" y="563.4995">[Session h&#7871;t h&#7841;n]</text><g class="message" data-participant-1="API" data-participant-2="App"><polygon fill="#000000" points="303.0229,584.2266,293.0229,588.2266,303.0229,592.2266,299.0229,588.2266" style="stroke:#000000;stroke-width:1;"/><line style="stroke:#000000;stroke-width:1;stroke-dasharray:2,2;" x1="297.0229" x2="494.0459" y1="588.2266" y2="588.2266"/><text fill="#000000" font-family="Verdana" font-size="13" lengthAdjust="spacing" textLength="179.0229" x="309.0229" y="583.1606">401 Session Oracle h&#7871;t h&#7841;n</text></g><rect fill="#FFFFFF" height="3" style="stroke:#FFFFFF;stroke-width:1;" width="970.9883" x="5" y="623.793"/><line style="stroke:#000000;stroke-width:0.5;" x1="5" x2="975.9883" y1="623.793" y2="623.793"/><line style="stroke:#000000;stroke-width:0.5;" x1="5" x2="975.9883" y1="626.793" y2="626.793"/><rect fill="#FFFFFF" height="23.1328" style="stroke:#000000;stroke-width:1;" width="93.9043" x="443.542" y="613.2266"/><text fill="#000000" font-family="Verdana" font-size="13" font-weight="bold" lengthAdjust="spacing" textLength="75.3784" x="449.542" y="629.2935">&#272;&#259;ng xu&#7845;t</text><g class="message" data-participant-1="Ng..iDung" data-participant-2="App"><polygon fill="#000000" points="280.0229,663.4922,290.0229,667.4922,280.0229,671.4922,284.0229,667.4922" style="stroke:#000000;stroke-width:1;"/><line style="stroke:#000000;stroke-width:1;" x1="52.0503" x2="286.0229" y1="667.4922" y2="667.4922"/><text fill="#000000" font-family="Verdana" font-size="13" lengthAdjust="spacing" textLength="170.7266" x="59.0503" y="662.4263">Nh&#7845;n logout / JWT h&#7871;t h&#7841;n</text></g><g class="message" data-participant-1="App" data-participant-2="API"><polygon fill="#000000" points="483.0459,692.625,493.0459,696.625,483.0459,700.625,487.0459,696.625" style="stroke:#000000;stroke-width:1;"/><line style="stroke:#000000;stroke-width:1;" x1="292.0229" x2="489.0459" y1="696.625" y2="696.625"/><text fill="#000000" font-family="Verdana" font-size="13" lengthAdjust="spacing" textLength="128.6543" x="299.0229" y="691.5591">G&#7885;i endpoint logout</text></g><g class="message" data-participant-1="API" data-participant-2="Session"><polygon fill="#000000" points="886.0703,721.7578,896.0703,725.7578,886.0703,729.7578,890.0703,725.7578" style="stroke:#000000;stroke-width:1;"/><line style="stroke:#000000;stroke-width:1;" x1="495.0459" x2="892.0703" y1="725.7578" y2="725.7578"/><text fill="#000000" font-family="Verdana" font-size="13" lengthAdjust="spacing" textLength="77.0796" x="502.0459" y="720.6919">X&#243;a session</text></g><g class="message" data-participant-1="API" data-participant-2="DB"><polygon fill="#000000" points="764.9575,750.8906,774.9575,754.8906,764.9575,758.8906,768.9575,754.8906" style="stroke:#000000;stroke-width:1;"/><line style="stroke:#000000;stroke-width:1;" x1="495.0459" x2="770.9575" y1="754.8906" y2="754.8906"/><text fill="#000000" font-family="Verdana" font-size="13" lengthAdjust="spacing" textLength="83.2114" x="502.0459" y="749.8247">&#272;&#243;ng k&#7871;t n&#7889;i</text></g><g class="message" data-participant-1="API" data-participant-2="App"><polygon fill="#000000" points="303.0229,780.0234,293.0229,784.0234,303.0229,788.0234,299.0229,784.0234" style="stroke:#000000;stroke-width:1;"/><line style="stroke:#000000;stroke-width:1;stroke-dasharray:2,2;" x1="297.0229" x2="494.0459" y1="784.0234" y2="784.0234"/><text fill="#000000" font-family="Verdana" font-size="13" lengthAdjust="spacing" textLength="106.0757" x="309.0229" y="778.9575">X&#225;c nh&#7853;n logout</text></g><!--SRC=[VLDDRzD04BtlhnXo0eKg876A5AIc4LKWJOk8r5utzYXUrTrrr-j2pZrmGYhg6K648i6XegYSR24E3lqV-qyOVmLRXFgm_fZtPjuyFTyp7fuW13uNaZ7k6ALXFBkzjia7COZaZ0LS6-68W4i3BPjyaJDmRRAas_r3d7Rsr5Ju-A05F8Jj86Z2jm-6y0hr6UgYVZ1aBZTyoaE4rhxcZeymwEUrGRz9VHdP-BC4F_r97S9GA9d3ocV6UZrONQpEIORqR7mLGA_7whfXwscc1xemBkfHY5ho4-m4F0nVA-soh9oXI6GNTctoJi1eVtSuPjaNAfIpg7YKtd08orVdzrTempEb7HofcOeCEBv0qao5YZhe4slF9X_XsCQ_34YRl1TGRFmGPfu0uwK_IAKHichyxzZHxNMq7dkMVbBW2iVG2zVp2jtOkGiJJRR1yyC967MCXK_5QXd-lnuHv4g0njC8GvD3stcJDdZ8NTHXqwmTBvhRv5oIV5elg8WRDh3nSbxklQEan5m-uxvPWunDBhCpNWW6TDKTd7Ws-UwGLm82hHnq8uqvYAfRQpKlSejFiy3yxR1UhN248liDV66Jjn53d-9NZVToCfqBkO7yvD7ZDRBCQvs0qgqdyGr9M9gxaxYaJ1UfwUGErzjj22HD29IWS1MakwFPID_g8hsXuRNyiUPkH-d2ANwUIj8V]--></g></svg>