<svg xmlns="http://www.w3.org/2000/svg" xmlns:xlink="http://www.w3.org/1999/xlink" contentStyleType="text/css" data-diagram-type="SEQUENCE" height="400px" preserveAspectRatio="none" style="width:790px;height:400px;background:#FFFFFF;" version="1.1" viewBox="0 0 790 400" width="790px" zoomAndPan="magnify"><defs/><g><g><title>User</title><rect fill="#000000" fill-opacity="0.00000" height="236.9297" width="8" x="24.9551" y="82.2969"/><line style="stroke:#000000;stroke-width:1;stroke-dasharray:5,5;" x1="28" x2="28" y1="82.2969" y2="319.2266"/></g><g><title>Application</title><rect fill="#000000" fill-opacity="0.00000" height="236.9297" width="8" x="278.48" y="82.2969"/><line style="stroke:#000000;stroke-width:1;stroke-dasharray:5,5;" x1="282.3682" x2="282.3682" y1="82.2969" y2="319.2266"/></g><g><title>Oracle DB</title><rect fill="#000000" fill-opacity="0.00000" height="236.9297" width="8" x="495.4614" y="82.2969"/><line style="stroke:#000000;stroke-width:1;stroke-dasharray:5,5;" x1="499.2666" x2="499.2666" y1="82.2969" y2="319.2266"/></g><g><title>APP_CTX_PKG</title><rect fill="#000000" fill-opacity="0.00000" height="236.9297" width="8" x="725.0815" y="82.2969"/><line style="stroke:#000000;stroke-width:1;stroke-dasharray:5,5;" x1="728.6558" x2="728.6558" y1="82.2969" y2="319.2266"/></g><g class="participant participant-head" data-participant="User"><text fill="#000000" font-family="Verdana" font-size="14" lengthAdjust="spacing" textLength="31.9102" x="10" y="78.9951">User</text><ellipse cx="28.9551" cy="14" fill="#FFFFFF" rx="8" ry="8" style="stroke:#000000;stroke-width:1;"/><path d="M28.9551,22 L28.9551,49 M15.9551,30 L41.9551,30 M28.9551,49 L15.9551,64 M28.9551,49 L41.9551,64" fill="none" style="stroke:#000000;stroke-width:1;"/></g><g class="participant participant-tail" data-participant="User"><text fill="#000000" font-family="Verdana" font-size="14" lengthAdjust="spacing" textLength="31.9102" x="10" y="331.2217">User</text><ellipse cx="28.9551" cy="343.5234" fill="#FFFFFF" rx="8" ry="8" style="stroke:#000000;stroke-width:1;"/><path d="M28.9551,351.5234 L28.9551,378.5234 M15.9551,359.5234 L41.9551,359.5234 M28.9551,378.5234 L15.9551,393.5234 M28.9551,378.5234 L41.9551,393.5234" fill="none" style="stroke:#000000;stroke-width:1;"/></g><g class="participant participant-head" data-participant="App"><rect fill="#FFFFFF" height="30.2969" rx="2.5" ry="2.5" style="stroke:#000000;stroke-width:1;" width="92.2236" x="236.3682" y="51"/><text fill="#000000" font-family="Verdana" font-size="14" lengthAdjust="spacing" textLength="78.2236" x="243.3682" y="70.9951">Application</text></g><g class="participant participant-tail" data-participant="App"><rect fill="#FFFFFF" height="30.2969" rx="2.5" ry="2.5" style="stroke:#000000;stroke-width:1;" width="92.2236" x="236.3682" y="318.2266"/><text fill="#000000" font-family="Verdana" font-size="14" lengthAdjust="spacing" textLength="78.2236" x="243.3682" y="338.2217">Application</text></g><g class="participant participant-head" data-participant="DB"><text fill="#000000" font-family="Verdana" font-size="14" lengthAdjust="spacing" textLength="70.3896" x="461.2666" y="78.9951">Oracle DB</text><path d="M481.4614,30 C481.4614,20 499.4614,20 499.4614,20 C499.4614,20 517.4614,20 517.4614,30 L517.4614,56 C517.4614,66 499.4614,66 499.4614,66 C499.4614,66 481.4614,66 481.4614,56 L481.4614,30" fill="#FFFFFF" style="stroke:#000000;stroke-width:1;"/><path d="M481.4614,30 C481.4614,40 499.4614,40 499.4614,40 C499.4614,40 517.4614,40 517.4614,30" fill="none" style="stroke:#000000;stroke-width:1;"/></g><g class="participant participant-tail" data-participant="DB"><text fill="#000000" font-family="Verdana" font-size="14" lengthAdjust="spacing" textLength="70.3896" x="461.2666" y="331.2217">Oracle DB</text><path d="M481.4614,344.5234 C481.4614,334.5234 499.4614,334.5234 499.4614,334.5234 C499.4614,334.5234 517.4614,334.5234 517.4614,344.5234 L517.4614,370.5234 C517.4614,380.5234 499.4614,380.5234 499.4614,380.5234 C499.4614,380.5234 481.4614,380.5234 481.4614,370.5234 L481.4614,344.5234" fill="#FFFFFF" style="stroke:#000000;stroke-width:1;"/><path d="M481.4614,344.5234 C481.4614,354.5234 499.4614,354.5234 499.4614,354.5234 C499.4614,354.5234 517.4614,354.5234 517.4614,344.5234" fill="none" style="stroke:#000000;stroke-width:1;"/></g><g class="participant participant-head" data-participant="ContextPkg"><rect fill="#FFFFFF" height="30.2969" rx="2.5" ry="2.5" style="stroke:#000000;stroke-width:1;" width="110.8516" x="673.6558" y="51"/><text fill="#000000" font-family="Verdana" font-size="14" lengthAdjust="spacing" textLength="96.8516" x="680.6558" y="70.9951">APP_CTX_PKG</text></g><g class="participant participant-tail" data-participant="ContextPkg"><rect fill="#FFFFFF" height="30.2969" rx="2.5" ry="2.5" style="stroke:#000000;stroke-width:1;" width="110.8516" x="673.6558" y="318.2266"/><text fill="#000000" font-family="Verdana" font-size="14" lengthAdjust="spacing" textLength="96.8516" x="680.6558" y="338.2217">APP_CTX_PKG</text></g><g class="message" data-participant-1="User" data-participant-2="App"><polygon fill="#000000" points="270.48,109.4297,280.48,113.4297,270.48,117.4297,274.48,113.4297" style="stroke:#000000;stroke-width:1;"/><line style="stroke:#000000;stroke-width:1;" x1="28.9551" x2="276.48" y1="113.4297" y2="113.4297"/><text fill="#000000" font-family="Verdana" font-size="13" lengthAdjust="spacing" textLength="71.3604" x="35.9551" y="108.3638">&#272;&#259;ng nh&#7853;p</text></g><g class="message" data-participant-1="App" data-participant-2="ContextPkg"><polygon fill="#000000" points="717.0815,138.5625,727.0815,142.5625,717.0815,146.5625,721.0815,142.5625" style="stroke:#000000;stroke-width:1;"/><line style="stroke:#000000;stroke-width:1;" x1="282.48" x2="723.0815" y1="142.5625" y2="142.5625"/><text fill="#000000" font-family="Verdana" font-size="13" lengthAdjust="spacing" textLength="422.6016" x="289.48" y="137.4966">Thi&#7871;t l&#7853;p context (ROLE, EMP_ID, CUSTOMER_PHONE, username)</text></g><g class="message" data-participant-1="ContextPkg" data-participant-2="DB"><polygon fill="#000000" points="510.4614,167.6953,500.4614,171.6953,510.4614,175.6953,506.4614,171.6953" style="stroke:#000000;stroke-width:1;"/><line style="stroke:#000000;stroke-width:1;" x1="504.4614" x2="728.0815" y1="171.6953" y2="171.6953"/><text fill="#000000" font-family="Verdana" font-size="13" lengthAdjust="spacing" textLength="138.9692" x="516.4614" y="166.6294">L&#432;u th&#244;ng tin session</text></g><g class="message" data-participant-1="App" data-participant-2="DB"><polygon fill="#000000" points="487.4614,196.8281,497.4614,200.8281,487.4614,204.8281,491.4614,200.8281" style="stroke:#000000;stroke-width:1;"/><line style="stroke:#000000;stroke-width:1;" x1="282.48" x2="493.4614" y1="200.8281" y2="200.8281"/><text fill="#000000" font-family="Verdana" font-size="13" lengthAdjust="spacing" textLength="192.9814" x="289.48" y="195.7622">SELECT d&#7919; li&#7879;u (k&#232;m context)</text></g><g class="message" data-participant-1="DB" data-participant-2="DB"><line style="stroke:#000000;stroke-width:1;" x1="499.4614" x2="541.4614" y1="229.9609" y2="229.9609"/><line style="stroke:#000000;stroke-width:1;" x1="541.4614" x2="541.4614" y1="229.9609" y2="242.9609"/><line style="stroke:#000000;stroke-width:1;" x1="500.4614" x2="541.4614" y1="242.9609" y2="242.9609"/><polygon fill="#000000" points="510.4614,238.9609,500.4614,242.9609,510.4614,246.9609,506.4614,242.9609" style="stroke:#000000;stroke-width:1;"/><text fill="#000000" font-family="Verdana" font-size="13" lengthAdjust="spacing" textLength="202.2554" x="506.4614" y="224.895">VPD Policy l&#7885;c d&#7919; li&#7879;u theo role</text></g><g class="message" data-participant-1="DB" data-participant-2="App"><polygon fill="#000000" points="293.48,268.0938,283.48,272.0938,293.48,276.0938,289.48,272.0938" style="stroke:#000000;stroke-width:1;"/><line style="stroke:#000000;stroke-width:1;" x1="287.48" x2="498.4614" y1="272.0938" y2="272.0938"/><text fill="#000000" font-family="Verdana" font-size="13" lengthAdjust="spacing" textLength="112.6646" x="299.48" y="267.0278">Tr&#7843; d&#7919; li&#7879;u &#273;&#227; l&#7885;c</text></g><g class="message" data-participant-1="App" data-participant-2="User"><polygon fill="#000000" points="39.9551,297.2266,29.9551,301.2266,39.9551,305.2266,35.9551,301.2266" style="stroke:#000000;stroke-width:1;"/><line style="stroke:#000000;stroke-width:1;" x1="33.9551" x2="281.48" y1="301.2266" y2="301.2266"/><text fill="#000000" font-family="Verdana" font-size="13" lengthAdjust="spacing" textLength="229.5249" x="45.9551" y="296.1606">Hi&#7875;n th&#7883; d&#7919; li&#7879;u &#273;&#432;&#7907;c ph&#233;p truy c&#7853;p</text></g><!--SRC=[NL3DJi904BxlKuoS8C4Nu60YRID6i1ienbkpBXkweMmtxJQHCmSFnaIVWOiUZ1muqOE74jwZR-Aqs2WSPxw_cU_C168kG8TCAa8ODr4CuqJ4HBFOI2urKmOQbrg7aZCZ8zK0bW3EPC8CUs29W8ORCnuAiBiLPdTFj9JwbdVlqvkh2hSYPSIZeRCf8MKId5-KVj21tUjkgQQWWcBxgKcvG-YFZWmlaCNssq1OCe0V86WEtRxJ1cT0_Mkx3TPuvBa3P-ZJddkB-nH359kB5lddXSvs5ntx-tKA9iWt66oaWaGa2NvPfrUSaTDtB0ycHVO5eIoofnIQi_nzNX_G8aYhoNVK1XfXMmkyCdlXHp8iEu8u2iMlul2t5nVRrH5lzvQl3lBwaAgf3lGGNohqARBd4yL-NMGh3Zh8FpIOE5q0Brlw0G00]--></g></svg>