<svg xmlns="http://www.w3.org/2000/svg" xmlns:xlink="http://www.w3.org/1999/xlink" contentStyleType="text/css" data-diagram-type="SEQUENCE" height="1080px" preserveAspectRatio="none" style="width:856px;height:1080px;background:#FFFFFF;" version="1.1" viewBox="0 0 856 1080" width="856px" zoomAndPan="magnify"><defs/><g><rect fill="#FFFFFF" height="162.4688" style="stroke:#000000;stroke-width:1;" width="378.7295" x="25" y="335.0938"/><rect fill="#FFFFFF" height="103.2031" style="stroke:none;stroke-width:1;" width="378.7295" x="25" y="394.3594"/><rect fill="#FFFFFF" height="17.1328" style="stroke:#000000;stroke-width:1;" width="91.9517" x="45" y="473.4297"/><g><title>WebApp</title><rect fill="#000000" fill-opacity="0.00000" height="917.125" width="8" x="63.3467" y="82.2969"/><line style="stroke:#000000;stroke-width:1;stroke-dasharray:5,5;" x1="67" x2="67" y1="82.2969" y2="999.4219"/></g><g><title>MobileApp</title><rect fill="#000000" fill-opacity="0.00000" height="917.125" width="8" x="394.7295" y="82.2969"/><line style="stroke:#000000;stroke-width:1;stroke-dasharray:5,5;" x1="398.0923" x2="398.0923" y1="82.2969" y2="999.4219"/></g><g><title>Server</title><rect fill="#000000" fill-opacity="0.00000" height="917.125" width="8" x="785.2979" y="82.2969"/><line style="stroke:#000000;stroke-width:1;stroke-dasharray:5,5;" x1="788.3428" x2="788.3428" y1="82.2969" y2="999.4219"/></g><g class="participant participant-head" data-participant="Web"><text fill="#000000" font-family="Verdana" font-size="14" lengthAdjust="spacing" textLength="58.6934" x="35" y="78.9951">WebApp</text><ellipse cx="67.3467" cy="14" fill="#FFFFFF" rx="8" ry="8" style="stroke:#000000;stroke-width:1;"/><path d="M67.3467,22 L67.3467,49 M54.3467,30 L80.3467,30 M67.3467,49 L54.3467,64 M67.3467,49 L80.3467,64" fill="none" style="stroke:#000000;stroke-width:1;"/></g><g class="participant participant-tail" data-participant="Web"><text fill="#000000" font-family="Verdana" font-size="14" lengthAdjust="spacing" textLength="58.6934" x="35" y="1011.417">WebApp</text><ellipse cx="67.3467" cy="1023.7188" fill="#FFFFFF" rx="8" ry="8" style="stroke:#000000;stroke-width:1;"/><path d="M67.3467,1031.7188 L67.3467,1058.7188 M54.3467,1039.7188 L80.3467,1039.7188 M67.3467,1058.7188 L54.3467,1073.7188 M67.3467,1058.7188 L80.3467,1073.7188" fill="none" style="stroke:#000000;stroke-width:1;"/></g><g class="participant participant-head" data-participant="Mobile"><text fill="#000000" font-family="Verdana" font-size="14" lengthAdjust="spacing" textLength="73.2744" x="359.0923" y="78.9951">MobileApp</text><ellipse cx="398.7295" cy="14" fill="#FFFFFF" rx="8" ry="8" style="stroke:#000000;stroke-width:1;"/><path d="M398.7295,22 L398.7295,49 M385.7295,30 L411.7295,30 M398.7295,49 L385.7295,64 M398.7295,49 L411.7295,64" fill="none" style="stroke:#000000;stroke-width:1;"/></g><g class="participant participant-tail" data-participant="Mobile"><text fill="#000000" font-family="Verdana" font-size="14" lengthAdjust="spacing" textLength="73.2744" x="359.0923" y="1011.417">MobileApp</text><ellipse cx="398.7295" cy="1023.7188" fill="#FFFFFF" rx="8" ry="8" style="stroke:#000000;stroke-width:1;"/><path d="M398.7295,1031.7188 L398.7295,1058.7188 M385.7295,1039.7188 L411.7295,1039.7188 M398.7295,1058.7188 L385.7295,1073.7188 M398.7295,1058.7188 L411.7295,1073.7188" fill="none" style="stroke:#000000;stroke-width:1;"/></g><g class="participant participant-head" data-participant="Server"><rect fill="#FFFFFF" height="30.2969" rx="2.5" ry="2.5" style="stroke:#000000;stroke-width:1;" width="59.9102" x="759.3428" y="51"/><text fill="#000000" font-family="Verdana" font-size="14" lengthAdjust="spacing" textLength="45.9102" x="766.3428" y="70.9951">Server</text></g><g class="participant participant-tail" data-participant="Server"><rect fill="#FFFFFF" height="30.2969" rx="2.5" ry="2.5" style="stroke:#000000;stroke-width:1;" width="59.9102" x="759.3428" y="998.4219"/><text fill="#000000" font-family="Verdana" font-size="14" lengthAdjust="spacing" textLength="45.9102" x="766.3428" y="1018.417">Server</text></g><rect fill="#FFFFFF" height="3" style="stroke:#FFFFFF;stroke-width:1;" width="844.2529" x="5" y="112.8633"/><line style="stroke:#000000;stroke-width:0.5;" x1="5" x2="849.2529" y1="112.8633" y2="112.8633"/><line style="stroke:#000000;stroke-width:0.5;" x1="5" x2="849.2529" y1="115.8633" y2="115.8633"/><rect fill="#FFFFFF" height="23.1328" style="stroke:#000000;stroke-width:1;" width="275.0283" x="289.6123" y="102.2969"/><text fill="#000000" font-family="Verdana" font-size="13" font-weight="bold" lengthAdjust="spacing" textLength="256.5024" x="295.6123" y="118.3638">&#272;&#259;ng nh&#7853;p Web t&#7915; Mobile b&#7857;ng QR</text><g class="message" data-participant-1="Web" data-participant-2="Web"><line style="stroke:#000000;stroke-width:1;" x1="67.3467" x2="109.3467" y1="156.5625" y2="156.5625"/><line style="stroke:#000000;stroke-width:1;" x1="109.3467" x2="109.3467" y1="156.5625" y2="169.5625"/><line style="stroke:#000000;stroke-width:1;" x1="68.3467" x2="109.3467" y1="169.5625" y2="169.5625"/><polygon fill="#000000" points="78.3467,165.5625,68.3467,169.5625,78.3467,173.5625,74.3467,169.5625" style="stroke:#000000;stroke-width:1;"/><text fill="#000000" font-family="Verdana" font-size="13" lengthAdjust="spacing" textLength="206.8765" x="74.3467" y="151.4966">POST /api/Public/QrLogin/create</text></g><path d="M292.8765,143.9297 L292.8765,168.9297 L543.8765,168.9297 L543.8765,153.9297 L533.8765,143.9297 L292.8765,143.9297" fill="#FFFFFF" style="stroke:#000000;stroke-width:1;"/><path d="M533.8765,143.9297 L533.8765,153.9297 L543.8765,153.9297 L533.8765,143.9297" fill="#FFFFFF" style="stroke:#000000;stroke-width:1;"/><text fill="#000000" font-family="Verdana" font-size="13" lengthAdjust="spacing" textLength="230.585" x="298.8765" y="160.9966">Nh&#7853;n qrLoginId, code, expiresAtUtc</text><g class="message" data-participant-1="Web" data-participant-2="Web"><line style="stroke:#000000;stroke-width:1;" x1="67.3467" x2="109.3467" y1="198.6953" y2="198.6953"/><line style="stroke:#000000;stroke-width:1;" x1="109.3467" x2="109.3467" y1="198.6953" y2="211.6953"/><line style="stroke:#000000;stroke-width:1;" x1="68.3467" x2="109.3467" y1="211.6953" y2="211.6953"/><polygon fill="#000000" points="78.3467,207.6953,68.3467,211.6953,78.3467,215.6953,74.3467,211.6953" style="stroke:#000000;stroke-width:1;"/><text fill="#000000" font-family="Verdana" font-size="13" lengthAdjust="spacing" textLength="214.8491" x="74.3467" y="193.6294">Hi&#7875;n th&#7883; QR/code cho ng&#432;&#7901;i d&#249;ng</text></g><g class="message" data-participant-1="Web" data-participant-2="Web"><line style="stroke:#000000;stroke-width:1;" x1="67.3467" x2="109.3467" y1="240.8281" y2="240.8281"/><line style="stroke:#000000;stroke-width:1;" x1="109.3467" x2="109.3467" y1="240.8281" y2="253.8281"/><line style="stroke:#000000;stroke-width:1;" x1="68.3467" x2="109.3467" y1="253.8281" y2="253.8281"/><polygon fill="#000000" points="78.3467,249.8281,68.3467,253.8281,78.3467,257.8281,74.3467,253.8281" style="stroke:#000000;stroke-width:1;"/><text fill="#000000" font-family="Verdana" font-size="13" lengthAdjust="spacing" textLength="275.0947" x="74.3467" y="235.7622">B&#7855;t &#273;&#7847;u polling tr&#7841;ng th&#225;i QR m&#7895;i 2-3 gi&#226;y</text></g><g class="message" data-participant-1="Web" data-participant-2="Web"><line style="stroke:#000000;stroke-width:1;" x1="67.3467" x2="109.3467" y1="307.0938" y2="307.0938"/><line style="stroke:#000000;stroke-width:1;" x1="109.3467" x2="109.3467" y1="307.0938" y2="320.0938"/><line style="stroke:#000000;stroke-width:1;" x1="68.3467" x2="109.3467" y1="320.0938" y2="320.0938"/><polygon fill="#000000" points="78.3467,316.0938,68.3467,320.0938,78.3467,324.0938,74.3467,320.0938" style="stroke:#000000;stroke-width:1;"/><text fill="#000000" font-family="Verdana" font-size="13" lengthAdjust="spacing" textLength="279.1382" x="74.3467" y="302.0278">GET /api/Public/QrLogin/status/{qrLoginId}</text></g><path d="M25,335.0938 L89.4429,335.0938 L89.4429,342.2266 L79.4429,352.2266 L25,352.2266 L25,335.0938" fill="#FFFFFF" style="stroke:#000000;stroke-width:1;"/><rect fill="none" height="162.4688" style="stroke:#000000;stroke-width:1;" width="378.7295" x="25" y="335.0938"/><text fill="#000000" font-family="Verdana" font-size="13" font-weight="bold" lengthAdjust="spacing" textLength="19.4429" x="40" y="348.1606">alt</text><text fill="#000000" font-family="Verdana" font-size="11" font-weight="bold" lengthAdjust="spacing" textLength="128.7559" x="104.4429" y="347.3042">[Tr&#7841;ng th&#225;i Pending]</text><g class="message" data-participant-1="Web" data-participant-2="Web"><line style="stroke:#000000;stroke-width:1;" x1="67.3467" x2="109.3467" y1="373.3594" y2="373.3594"/><line style="stroke:#000000;stroke-width:1;" x1="109.3467" x2="109.3467" y1="373.3594" y2="386.3594"/><line style="stroke:#000000;stroke-width:1;" x1="68.3467" x2="109.3467" y1="386.3594" y2="386.3594"/><polygon fill="#000000" points="78.3467,382.3594,68.3467,386.3594,78.3467,390.3594,74.3467,386.3594" style="stroke:#000000;stroke-width:1;"/><text fill="#000000" font-family="Verdana" font-size="13" lengthAdjust="spacing" textLength="184.8691" x="74.3467" y="368.2935">Hi&#7875;n th&#7883; &#273;&#7891;ng h&#7891; &#273;&#7871;m ng&#432;&#7907;c</text></g><line style="stroke:#000000;stroke-width:1;stroke-dasharray:2,2;" x1="25" x2="403.7295" y1="395.3594" y2="395.3594"/><text fill="#000000" font-family="Verdana" font-size="11" font-weight="bold" lengthAdjust="spacing" textLength="142.291" x="30" y="405.5698">[Tr&#7841;ng th&#225;i Confirmed]</text><g class="message" data-participant-1="Web" data-participant-2="Web"><line style="stroke:#000000;stroke-width:1;" x1="67.3467" x2="109.3467" y1="445.4297" y2="445.4297"/><line style="stroke:#000000;stroke-width:1;" x1="109.3467" x2="109.3467" y1="445.4297" y2="458.4297"/><line style="stroke:#000000;stroke-width:1;" x1="68.3467" x2="109.3467" y1="458.4297" y2="458.4297"/><polygon fill="#000000" points="78.3467,454.4297,68.3467,458.4297,78.3467,462.4297,74.3467,458.4297" style="stroke:#000000;stroke-width:1;"/><text fill="#000000" font-family="Verdana" font-size="13" lengthAdjust="spacing" textLength="317.3828" x="74.3467" y="425.231">G&#7885;i API POST /Public/Customer/CompleteQrLogin</text><text fill="#000000" font-family="Verdana" font-size="13" lengthAdjust="spacing" textLength="261.3203" x="74.3467" y="440.3638">G&#7917;i {username, roles, token, sessionId}</text></g><path d="M45,473.4297 L131.9517,473.4297 L131.9517,480.5625 L121.9517,490.5625 L45,490.5625 L45,473.4297" fill="#FFFFFF" style="stroke:#000000;stroke-width:1;"/><rect fill="none" height="17.1328" style="stroke:#000000;stroke-width:1;" width="91.9517" x="45" y="473.4297"/><text fill="#000000" font-family="Verdana" font-size="13" font-weight="bold" lengthAdjust="spacing" textLength="41.9517" x="60" y="486.4966">break</text><g class="message" data-participant-1="Mobile" data-participant-2="Mobile"><line style="stroke:#000000;stroke-width:1;" x1="398.7295" x2="440.7295" y1="525.6953" y2="525.6953"/><line style="stroke:#000000;stroke-width:1;" x1="440.7295" x2="440.7295" y1="525.6953" y2="538.6953"/><line style="stroke:#000000;stroke-width:1;" x1="399.7295" x2="440.7295" y1="538.6953" y2="538.6953"/><polygon fill="#000000" points="409.7295,534.6953,399.7295,538.6953,409.7295,542.6953,405.7295,538.6953" style="stroke:#000000;stroke-width:1;"/><text fill="#000000" font-family="Verdana" font-size="13" lengthAdjust="spacing" textLength="312.8506" x="405.7295" y="520.6294">Ng&#432;&#7901;i d&#249;ng m&#7903; ch&#7913;c n&#259;ng qu&#233;t ho&#7863;c nh&#7853;p code</text></g><g class="message" data-participant-1="Mobile" data-participant-2="Mobile"><line style="stroke:#000000;stroke-width:1;" x1="398.7295" x2="440.7295" y1="567.8281" y2="567.8281"/><line style="stroke:#000000;stroke-width:1;" x1="440.7295" x2="440.7295" y1="567.8281" y2="580.8281"/><line style="stroke:#000000;stroke-width:1;" x1="399.7295" x2="440.7295" y1="580.8281" y2="580.8281"/><polygon fill="#000000" points="409.7295,576.8281,399.7295,580.8281,409.7295,584.8281,405.7295,580.8281" style="stroke:#000000;stroke-width:1;"/><text fill="#000000" font-family="Verdana" font-size="13" lengthAdjust="spacing" textLength="214.6079" x="405.7295" y="562.7622">S&#7861;n JWT Token(&#273;&#259;ng nh&#7853;p tr&#432;&#7899;c)</text></g><g class="message" data-participant-1="Mobile" data-participant-2="Server"><polygon fill="#000000" points="777.2979,621.0938,787.2979,625.0938,777.2979,629.0938,781.2979,625.0938" style="stroke:#000000;stroke-width:1;"/><line style="stroke:#000000;stroke-width:1;" x1="398.7295" x2="783.2979" y1="625.0938" y2="625.0938"/><text fill="#000000" font-family="Verdana" font-size="13" lengthAdjust="spacing" textLength="214.8618" x="405.7295" y="604.895">POST /api/Public/QrLogin/confirm</text><text fill="#000000" font-family="Verdana" font-size="13" lengthAdjust="spacing" textLength="162.4302" x="405.7295" y="620.0278">G&#7917;i m&#227; QR v&#224; JWT Token</text></g><g class="message" data-participant-1="Server" data-participant-2="Web"><polygon fill="#000000" points="78.3467,650.2266,68.3467,654.2266,78.3467,658.2266,74.3467,654.2266" style="stroke:#000000;stroke-width:1;"/><line style="stroke:#000000;stroke-width:1;" x1="72.3467" x2="788.2979" y1="654.2266" y2="654.2266"/><text fill="#000000" font-family="Verdana" font-size="13" lengthAdjust="spacing" textLength="237.3198" x="84.3467" y="649.1606">C&#7853;p nh&#7853;t tr&#7841;ng th&#225;i QR &#8594; Confirmed</text></g><rect fill="#FFFFFF" height="3" style="stroke:#FFFFFF;stroke-width:1;" width="844.2529" x="5" y="682.793"/><line style="stroke:#000000;stroke-width:0.5;" x1="5" x2="849.2529" y1="682.793" y2="682.793"/><line style="stroke:#000000;stroke-width:0.5;" x1="5" x2="849.2529" y1="685.793" y2="685.793"/><rect fill="#FFFFFF" height="23.1328" style="stroke:#000000;stroke-width:1;" width="275.0283" x="289.6123" y="672.2266"/><text fill="#000000" font-family="Verdana" font-size="13" font-weight="bold" lengthAdjust="spacing" textLength="256.5024" x="295.6123" y="688.2935">&#272;&#259;ng nh&#7853;p Mobile t&#7915; Web b&#7857;ng QR</text><g class="message" data-participant-1="Web" data-participant-2="Web"><line style="stroke:#000000;stroke-width:1;" x1="67.3467" x2="109.3467" y1="726.4922" y2="726.4922"/><line style="stroke:#000000;stroke-width:1;" x1="109.3467" x2="109.3467" y1="726.4922" y2="739.4922"/><line style="stroke:#000000;stroke-width:1;" x1="68.3467" x2="109.3467" y1="739.4922" y2="739.4922"/><polygon fill="#000000" points="78.3467,735.4922,68.3467,739.4922,78.3467,743.4922,74.3467,739.4922" style="stroke:#000000;stroke-width:1;"/><text fill="#000000" font-family="Verdana" font-size="13" lengthAdjust="spacing" textLength="241.1792" x="74.3467" y="721.4263">Ng&#432;&#7901;i d&#249;ng &#273;&#259;ng nh&#7853;p v&#224;o t&#224;i kho&#7843;n</text></g><g class="message" data-participant-1="Web" data-participant-2="Web"><line style="stroke:#000000;stroke-width:1;" x1="67.3467" x2="109.3467" y1="768.625" y2="768.625"/><line style="stroke:#000000;stroke-width:1;" x1="109.3467" x2="109.3467" y1="768.625" y2="781.625"/><line style="stroke:#000000;stroke-width:1;" x1="68.3467" x2="109.3467" y1="781.625" y2="781.625"/><polygon fill="#000000" points="78.3467,777.625,68.3467,781.625,78.3467,785.625,74.3467,781.625" style="stroke:#000000;stroke-width:1;"/><text fill="#000000" font-family="Verdana" font-size="13" lengthAdjust="spacing" textLength="259.2192" x="74.3467" y="763.5591">POST /api/Public/WebToMobileQr/create</text></g><path d="M345.2192,755.9922 L345.2192,780.9922 L484.2192,780.9922 L484.2192,765.9922 L474.2192,755.9922 L345.2192,755.9922" fill="#FFFFFF" style="stroke:#000000;stroke-width:1;"/><path d="M474.2192,755.9922 L474.2192,765.9922 L484.2192,765.9922 L474.2192,755.9922" fill="#FFFFFF" style="stroke:#000000;stroke-width:1;"/><text fill="#000000" font-family="Verdana" font-size="13" lengthAdjust="spacing" textLength="118.0601" x="351.2192" y="773.0591">Nh&#7853;n m&#227; QR/code</text><g class="message" data-participant-1="Web" data-participant-2="Web"><line style="stroke:#000000;stroke-width:1;" x1="67.3467" x2="109.3467" y1="810.7578" y2="810.7578"/><line style="stroke:#000000;stroke-width:1;" x1="109.3467" x2="109.3467" y1="810.7578" y2="823.7578"/><line style="stroke:#000000;stroke-width:1;" x1="68.3467" x2="109.3467" y1="823.7578" y2="823.7578"/><polygon fill="#000000" points="78.3467,819.7578,68.3467,823.7578,78.3467,827.7578,74.3467,823.7578" style="stroke:#000000;stroke-width:1;"/><text fill="#000000" font-family="Verdana" font-size="13" lengthAdjust="spacing" textLength="109.8335" x="74.3467" y="805.6919">Hi&#7875;n th&#7883; QR/code</text></g><g class="message" data-participant-1="Mobile" data-participant-2="Mobile"><line style="stroke:#000000;stroke-width:1;" x1="398.7295" x2="440.7295" y1="852.8906" y2="852.8906"/><line style="stroke:#000000;stroke-width:1;" x1="440.7295" x2="440.7295" y1="852.8906" y2="865.8906"/><line style="stroke:#000000;stroke-width:1;" x1="399.7295" x2="440.7295" y1="865.8906" y2="865.8906"/><polygon fill="#000000" points="409.7295,861.8906,399.7295,865.8906,409.7295,869.8906,405.7295,865.8906" style="stroke:#000000;stroke-width:1;"/><text fill="#000000" font-family="Verdana" font-size="13" lengthAdjust="spacing" textLength="244.5181" x="405.7295" y="847.8247">Ng&#432;&#7901;i d&#249;ng ch&#7885;n &#273;&#259;ng nh&#7853;p b&#7857;ng QR</text></g><g class="message" data-participant-1="Mobile" data-participant-2="Server"><polygon fill="#000000" points="777.2979,906.1563,787.2979,910.1563,777.2979,914.1563,781.2979,910.1563" style="stroke:#000000;stroke-width:1;"/><line style="stroke:#000000;stroke-width:1;" x1="398.7295" x2="783.2979" y1="910.1563" y2="910.1563"/><text fill="#000000" font-family="Verdana" font-size="13" lengthAdjust="spacing" textLength="267.2046" x="405.7295" y="889.9575">POST /api/Public/WebToMobileQr/confirm</text><text fill="#000000" font-family="Verdana" font-size="13" lengthAdjust="spacing" textLength="105.8154" x="405.7295" y="905.0903">G&#7917;i m&#227; QR/code</text></g><g class="message" data-participant-1="Server" data-participant-2="Mobile"><polygon fill="#000000" points="409.7295,935.2891,399.7295,939.2891,409.7295,943.2891,405.7295,939.2891" style="stroke:#000000;stroke-width:1;"/><line style="stroke:#000000;stroke-width:1;" x1="403.7295" x2="788.2979" y1="939.2891" y2="939.2891"/><text fill="#000000" font-family="Verdana" font-size="13" lengthAdjust="spacing" textLength="261.936" x="415.7295" y="934.2231">X&#225;c nh&#7853;n h&#7907;p l&#7879;, c&#7853;p nh&#7853;t tr&#7841;ng th&#225;i QR</text></g><g class="message" data-participant-1="Mobile" data-participant-2="Mobile"><line style="stroke:#000000;stroke-width:1;" x1="398.7295" x2="440.7295" y1="968.4219" y2="968.4219"/><line style="stroke:#000000;stroke-width:1;" x1="440.7295" x2="440.7295" y1="968.4219" y2="981.4219"/><line style="stroke:#000000;stroke-width:1;" x1="399.7295" x2="440.7295" y1="981.4219" y2="981.4219"/><polygon fill="#000000" points="409.7295,977.4219,399.7295,981.4219,409.7295,985.4219,405.7295,981.4219" style="stroke:#000000;stroke-width:1;"/><text fill="#000000" font-family="Verdana" font-size="13" lengthAdjust="spacing" textLength="376.5684" x="405.7295" y="963.356">Ng&#432;&#7901;i d&#249;ng &#273;&#259;ng nh&#7853;p th&#224;nh c&#244;ng (Proxy Authentication)</text></g><!--SRC=[ZLHDQzH06BxdLxpUMjWIq5jXXNMHMl4Zsrsf1o_PoPWCcyoaaqbfAPuAUf12QmyUHDnr3rAagA28oS535l_7-4kSIRBRJRfk6mX9PjwFvvddUND3U3Z04FeseOPX8y4uRED-Amp1ZlHRkVQGzOcFo-NYmp2QJPWSJmwf2zIJoNceuq78z7CP0NsPV5ExdIreDWszkNPRnwo3zRZR0zCEYMd5VPyWiyCVC9TG4t5i2snG9Z1mudfY7HxfsXHsYeXDfm68ERW1U2ya74SjyKIWIl5xHAQ758GdqzUgjwd30NaCgFldgqpV4t2oNzIjvDoHoHS1anEPV8eXPBvF56x1PJBIJoyR4SqYaEbR0ZVNRe5Bie_xXk4p5e9LXdUs353NVDcDkujfHi8MSMGUp4Yzo5DjNq2lqjJ2r56ryzrwyGfF1JqzLMdgupJdyJie-OvHdetz2DUAjnbzJdY0dONbDsHwHA1bRPPgbHJQSIHOWBdPPa7eOu5BJi-eIZWdS117c5CxK0fnvkEe0O8DC6r0XAE8i1bNVVMLseC27NKCVHkbSnI8uatfNr5DQ_11gIdJCmGqDzzEd9q9y9XCVgAf4xNc2sfrPVA3mltj7lGqg9N9oRnz1TUTtg7LkSmkvhkOBtDiSOXJ-a4sraxPpOONROoYoEnastctlAcuRBA_Bz_CANDvo4fi-PnflVuxPBM3gt9L01c8R4XWe4zkJ9VFfrhjiQ9pXo-Pqe9-Fd9NpkGrnDOw7z4Qz1dXwyXK0xv8h0BCXKPJB4-pKUadgiTg788lqrVgzxDClgivrJpdPKFg0Sg-gxKLYxEzVMZ5wgzC1K6sK0Ep-Wy0]--></g></svg>